<svg viewBox="0 0 800 800" xmlns="http://www.w3.org/2000/svg">
  <!-- Background circle -->
  <circle cx="400" cy="400" r="380" fill="#2B2D5C"/>
  
  <!-- Stars -->
  <circle cx="150" cy="180" r="2" fill="white"/>
  <circle cx="680" cy="220" r="2" fill="white"/>
  <circle cx="720" cy="580" r="2" fill="white"/>
  <circle cx="200" cy="650" r="2" fill="white"/>
  <circle cx="620" cy="680" r="2" fill="white"/>
  
  <!-- Larger stars (4-pointed) -->
  <g transform="translate(280, 150)">
    <line x1="0" y1="-8" x2="0" y2="8" stroke="white" stroke-width="1.5"/>
    <line x1="-8" y1="0" x2="8" y2="0" stroke="white" stroke-width="1.5"/>
  </g>
  <g transform="translate(550, 620)">
    <line x1="0" y1="-8" x2="0" y2="8" stroke="white" stroke-width="1.5"/>
    <line x1="-8" y1="0" x2="8" y2="0" stroke="white" stroke-width="1.5"/>
  </g>
  
  <!-- Calendar body -->
  <rect x="250" y="220" width="300" height="360" rx="20" fill="#6059e3" opacity="0.95"/>
  <rect x="250" y="220" width="300" height="360" rx="20" fill="none" stroke="white" stroke-width="4"/>
  
  <!-- Calendar header -->
  <rect x="250" y="220" width="300" height="70" rx="20" fill="#5048c7"/>
  <rect x="250" y="220" width="300" height="70" fill="none" stroke="white" stroke-width="4"/>
  
  <!-- Month text -->
  <text x="400" y="267" font-family="Arial, sans-serif" font-size="28" font-weight="bold" fill="white" text-anchor="middle">NOVEMBER</text>
  
  <!-- Ring binding circles -->
  <circle cx="310" cy="220" r="8" fill="white"/>
  <circle cx="400" cy="220" r="8" fill="white"/>
  <circle cx="490" cy="220" r="8" fill="white"/>
  
  <!-- Day labels -->
  <text x="285" y="325" font-family="Arial, sans-serif" font-size="16" font-weight="600" fill="white" text-anchor="middle">S</text>
  <text x="325" y="325" font-family="Arial, sans-serif" font-size="16" font-weight="600" fill="white" text-anchor="middle">M</text>
  <text x="365" y="325" font-family="Arial, sans-serif" font-size="16" font-weight="600" fill="white" text-anchor="middle">T</text>
  <text x="405" y="325" font-family="Arial, sans-serif" font-size="16" font-weight="600" fill="white" text-anchor="middle">W</text>
  <text x="445" y="325" font-family="Arial, sans-serif" font-size="16" font-weight="600" fill="white" text-anchor="middle">T</text>
  <text x="485" y="325" font-family="Arial, sans-serif" font-size="16" font-weight="600" fill="white" text-anchor="middle">F</text>
  <text x="515" y="325" font-family="Arial, sans-serif" font-size="16" font-weight="600" fill="white" text-anchor="middle">S</text>
  
  <!-- Date grid -->
  <!-- Week 1 -->
  <text x="285" y="365" font-family="Arial, sans-serif" font-size="18" fill="white" opacity="0.5" text-anchor="middle">27</text>
  <text x="325" y="365" font-family="Arial, sans-serif" font-size="18" fill="white" opacity="0.5" text-anchor="middle">28</text>
  <text x="365" y="365" font-family="Arial, sans-serif" font-size="18" fill="white" opacity="0.5" text-anchor="middle">29</text>
  <text x="405" y="365" font-family="Arial, sans-serif" font-size="18" fill="white" opacity="0.5" text-anchor="middle">30</text>
  <text x="445" y="365" font-family="Arial, sans-serif" font-size="18" fill="white" opacity="0.5" text-anchor="middle">31</text>
  <text x="485" y="365" font-family="Arial, sans-serif" font-size="18" fill="white" text-anchor="middle">1</text>
  <text x="515" y="365" font-family="Arial, sans-serif" font-size="18" fill="white" text-anchor="middle">2</text>
  
  <!-- Week 2 -->
  <text x="285" y="405" font-family="Arial, sans-serif" font-size="18" fill="white" text-anchor="middle">3</text>
  <text x="325" y="405" font-family="Arial, sans-serif" font-size="18" fill="white" text-anchor="middle">4</text>
  <text x="365" y="405" font-family="Arial, sans-serif" font-size="18" fill="white" text-anchor="middle">5</text>
  <text x="405" y="405" font-family="Arial, sans-serif" font-size="18" fill="white" text-anchor="middle">6</text>
  <text x="445" y="405" font-family="Arial, sans-serif" font-size="18" fill="white" text-anchor="middle">7</text>
  <text x="485" y="405" font-family="Arial, sans-serif" font-size="18" fill="white" text-anchor="middle">8</text>
  <text x="515" y="405" font-family="Arial, sans-serif" font-size="18" fill="white" text-anchor="middle">9</text>
  
  <!-- Week 3 -->
  <text x="285" y="445" font-family="Arial, sans-serif" font-size="18" fill="white" text-anchor="middle">10</text>
  <text x="325" y="445" font-family="Arial, sans-serif" font-size="18" fill="white" text-anchor="middle">11</text>
  <text x="365" y="445" font-family="Arial, sans-serif" font-size="18" fill="white" text-anchor="middle">12</text>
  <text x="405" y="445" font-family="Arial, sans-serif" font-size="18" fill="white" text-anchor="middle">13</text>
  <text x="445" y="445" font-family="Arial, sans-serif" font-size="18" fill="white" text-anchor="middle">14</text>
  <text x="485" y="445" font-family="Arial, sans-serif" font-size="18" fill="white" text-anchor="middle">15</text>
  <text x="515" y="445" font-family="Arial, sans-serif" font-size="18" fill="white" text-anchor="middle">16</text>
  
  <!-- Week 4 -->
  <text x="285" y="485" font-family="Arial, sans-serif" font-size="18" fill="white" text-anchor="middle">17</text>
  <text x="325" y="485" font-family="Arial, sans-serif" font-size="18" fill="white" text-anchor="middle">18</text>
  <text x="365" y="485" font-family="Arial, sans-serif" font-size="18" fill="white" text-anchor="middle">19</text>
  <!-- Highlighted current day -->
  <circle cx="405" cy="478" r="16" fill="white"/>
  <text x="405" y="485" font-family="Arial, sans-serif" font-size="18" fill="#6059e3" font-weight="bold" text-anchor="middle">20</text>
  <text x="445" y="485" font-family="Arial, sans-serif" font-size="18" fill="white" text-anchor="middle">21</text>
  <text x="485" y="485" font-family="Arial, sans-serif" font-size="18" fill="white" text-anchor="middle">22</text>
  <text x="515" y="485" font-family="Arial, sans-serif" font-size="18" fill="white" text-anchor="middle">23</text>
  
  <!-- Week 5 -->
  <text x="285" y="525" font-family="Arial, sans-serif" font-size="18" fill="white" text-anchor="middle">24</text>
  <text x="325" y="525" font-family="Arial, sans-serif" font-size="18" fill="white" text-anchor="middle">25</text>
  <text x="365" y="525" font-family="Arial, sans-serif" font-size="18" fill="white" text-anchor="middle">26</text>
  <text x="405" y="525" font-family="Arial, sans-serif" font-size="18" fill="white" text-anchor="middle">27</text>
  <text x="445" y="525" font-family="Arial, sans-serif" font-size="18" fill="white" text-anchor="middle">28</text>
  <text x="485" y="525" font-family="Arial, sans-serif" font-size="18" fill="white" text-anchor="middle">29</text>
  <text x="515" y="525" font-family="Arial, sans-serif" font-size="18" fill="white" text-anchor="middle">30</text>
  
  <!-- Small decorative planet in corner -->
  <circle cx="680" cy="400" r="35" fill="#B8B9E8" opacity="0.3"/>
  <ellipse cx="680" cy="400" rx="55" ry="8" fill="none" stroke="#B8B9E8" stroke-width="3" opacity="0.3"/>
  
  <!-- Small rocket decoration -->
  <g transform="translate(140, 520) rotate(-30)">
    <polygon points="0,-20 -8,10 8,10" fill="#C5C6EA"/>
    <polygon points="-8,10 -12,20 -4,10" fill="#FF6B6B"/>
    <polygon points="8,10 4,10 12,20" fill="#FF6B6B"/>
    <circle cx="0" cy="0" r="3" fill="#2B2D5C"/>
  </g>
</svg>